<?xml version="1.0" encoding="UTF-8"?>
<svg id="Layer_1" data-name="Layer 1" xmlns="http://www.w3.org/2000/svg" viewBox="0 0 226.77 119.06">
  <defs>
    <style>
      .cls-1 {
        fill: #f26822;
      }
    </style>
  </defs>
  <path class="cls-1" d="M195.95,58.22v-12.64h-2.62v12.64h-7.92c-2.25-3.31-5.05-7.45-8.58-12.64h-3.04v12.64h-2.75c-.25-7.5-4.5-13.05-11.75-13.05s-11.69,5.67-12.05,13.05h-10.53l13.56-12.65h-2.97l-12.54,11.7v-11.7h-2.62v12.65h-12.43v-10.29h8.05v-2.36h-18.64v2.36h7.97v10.29h-26.63v-10.29h13.93v-2.36h-16.55v12.65h-11.48v-10.29h8.05v-2.36h-18.64v2.36h7.98v10.29h-13.15v-12.64h-2.62v12.64h-7.91c-2.26-3.31-5.05-7.45-8.59-12.64h-3.04v12.64h-4.18v-12.64h-2.62v12.64h-3.29v2.66h3.29v12.61h2.62v-12.61h4.18v12.61h2.62v-12.61h7.65c2.75,4.2,5.51,8.41,8.25,12.61h3.64v-12.61h13.15v12.61h2.61v-12.61h11.48v12.61h16.88v-2.36h-14.26v-10.25h26.63v12.61h2.62v-12.61h12.43v12.61h2.62v-11.34l12.12,11.31h2.97l-13.49-12.58h10.92c.47,7.34,4.36,13,11.71,13,7.92,0,11.52-5.48,12.01-13h2.79v12.61h2.62v-12.61h7.66c2.75,4.2,5.49,8.41,8.25,12.61h3.63v-12.61h3.28v-2.66h-3.28ZM41.06,58.22c0-3.4.04-6.33,0-9.01,1.97,3,3.94,6.01,5.91,9.01h-5.91ZM51.88,60.88h6.1c0,2.94,0,6.6.03,9.08-1.09-1.61-2.88-4.28-6.13-9.08ZM158.99,71.49c-6.91,0-8.83-4.21-9.09-10.61h18.48c-.26,6.86-2.16,10.61-9.39,10.61ZM149.88,58.22c.19-6.84,2.46-10.65,9.37-10.65s9.01,3.76,9.15,10.65h-18.52ZM176.41,58.22c0-4.04.05-7.4-.06-10.47l.07,1.46c1.97,3,3.93,6.01,5.91,9.01h-5.92ZM187.22,60.88h6.11c0,2.94,0,6.6.03,9.08-1.09-1.61-2.88-4.28-6.14-9.08Z"/>
</svg>